
  <svg width="329.25" height="48" viewBox="0 0 1756 256" fill="none" xmlns="http://www.w3.org/2000/svg" xmlns:xlink="http://www.w3.org/1999/xlink" version="1.1">
    
        <g transform="translate(0, 0)">
          <svg xmlns="http://www.w3.org/2000/svg" width="256" height="256" fill="none" viewBox="0 0 256 256"><rect width="256" height="256" fill="#E14E1D" rx="60"/><path fill="#fff" d="M48 38L56.6098 134.593H167.32L163.605 176.023L127.959 185.661L92.38 176.037L90.0012 149.435H57.9389L62.5236 200.716L127.951 218.888L193.461 200.716L202.244 102.655H85.8241L82.901 69.9448H205.041H205.139L208 38H48Z"/><path fill="#EBEBEB" d="M128 38H48L56.6098 134.593H128V102.655H85.8241L82.901 69.9448H128V38Z"/><path fill="#EBEBEB" d="M128 185.647L127.959 185.661L92.38 176.037L90.0012 149.435H57.9388L62.5236 200.716L127.951 218.888L128 218.874V185.647Z"/></svg>
        </g>
         
        <g transform="translate(300, 0)">
          <svg width="256" height="256" viewBox="0 0 256 256" fill="none" xmlns="http://www.w3.org/2000/svg">
<rect width="256" height="256" rx="60" fill="#0277BD"/>
<path d="M53.7527 102.651L56.6155 134.593H128.096V102.651H53.7527Z" fill="#EBEBEB"/>
<path d="M128.095 38H127.985H48L50.9036 69.9423H128.095V38Z" fill="#EBEBEB"/>
<path d="M128.095 218.841V185.608L127.955 185.645L92.3813 176.04L90.1072 150.564H72.821H58.0425L62.5175 200.718L127.948 218.882L128.095 218.841Z" fill="#EBEBEB"/>
<path d="M167.318 134.593L163.61 176.019L127.985 185.635V218.866L193.468 200.718L193.948 195.321L201.454 111.229L202.233 102.651L208 38H127.985V69.9423H172.994L170.088 102.651H127.985V134.593H167.318Z" fill="white"/>
</svg>

        </g>
         
        <g transform="translate(600, 0)">
          <svg width="256" height="256" viewBox="0 0 256 256" fill="none" xmlns="http://www.w3.org/2000/svg">
<rect width="256" height="256" rx="60" fill="#F0DB4F"/>
<path d="M67.3117 213.932L86.9027 202.076C90.6821 208.777 94.1202 214.447 102.367 214.447C110.272 214.447 115.256 211.355 115.256 199.327V117.529H139.314V199.667C139.314 224.584 124.708 235.926 103.398 235.926C84.1533 235.926 72.9819 225.959 67.3113 213.93" fill="#323330"/>
<path d="M152.381 211.354L171.969 200.013C177.126 208.434 183.828 214.62 195.684 214.62C205.653 214.62 212.009 209.636 212.009 202.762C212.009 194.514 205.479 191.592 194.481 186.782L188.468 184.203C171.111 176.815 159.597 167.535 159.597 147.945C159.597 129.901 173.345 116.153 194.826 116.153C210.12 116.153 221.118 121.481 229.022 135.4L210.291 147.429C206.166 140.04 201.7 137.119 194.826 137.119C187.78 137.119 183.312 141.587 183.312 147.429C183.312 154.646 187.78 157.568 198.09 162.037L204.104 164.614C224.553 173.379 236.067 182.313 236.067 202.418C236.067 224.072 219.055 235.928 196.2 235.928C173.861 235.928 159.426 225.274 152.381 211.354" fill="#323330"/>
</svg>

        </g>
         
        <g transform="translate(900, 0)">
          <svg xmlns="http://www.w3.org/2000/svg" width="256" height="256" fill="none" viewBox="0 0 256 256"><rect width="256" height="256" fill="#242938" rx="60"/><path fill="#00D8FF" d="M128.001 146.951C138.305 146.951 146.657 138.598 146.657 128.295C146.657 117.992 138.305 109.639 128.001 109.639C117.698 109.639 109.345 117.992 109.345 128.295C109.345 138.598 117.698 146.951 128.001 146.951Z"/><path fill-rule="evenodd" stroke="#00D8FF" stroke-width="8.911" d="M128.002 90.3633C153.05 90.3633 176.319 93.9575 193.864 99.9976C215.003 107.275 228 118.306 228 128.295C228 138.704 214.226 150.423 191.525 157.944C174.363 163.63 151.779 166.598 128.002 166.598C103.624 166.598 80.5389 163.812 63.1834 157.881C41.2255 150.376 28 138.506 28 128.295C28 118.387 40.4096 107.441 61.2515 100.175C78.8617 94.0353 102.705 90.3633 127.998 90.3633H128.002Z" clip-rule="evenodd"/><path fill-rule="evenodd" stroke="#00D8FF" stroke-width="8.911" d="M94.9811 109.438C107.495 87.7402 122.232 69.3783 136.23 57.1971C153.094 42.5206 169.144 36.7728 177.796 41.7623C186.813 46.9623 190.084 64.7496 185.259 88.1712C181.614 105.879 172.9 126.925 161.021 147.523C148.842 168.641 134.897 187.247 121.09 199.315C103.619 214.587 86.7284 220.114 77.8833 215.013C69.3003 210.067 66.0181 193.846 70.1356 172.161C73.6145 153.838 82.3451 131.349 94.977 109.438L94.9811 109.438Z" clip-rule="evenodd"/><path fill-rule="evenodd" stroke="#00D8FF" stroke-width="8.911" d="M95.0123 147.578C82.4633 125.904 73.9194 103.962 70.3531 85.7517C66.0602 63.8109 69.0954 47.0355 77.7401 42.0315C86.7485 36.8163 103.792 42.866 121.674 58.7437C135.194 70.7479 149.077 88.8052 160.99 109.383C173.204 130.481 182.358 151.856 185.919 169.844C190.425 192.608 186.778 210.001 177.941 215.116C169.367 220.08 153.676 214.825 136.945 200.427C122.809 188.263 107.685 169.468 95.0123 147.578Z" clip-rule="evenodd"/></svg>
        </g>
         
        <g transform="translate(1200, 0)">
          <svg xmlns="http://www.w3.org/2000/svg" width="256" height="256" fill="none" viewBox="0 0 256 256"><rect width="256" height="256" fill="#242938" rx="60"/><path fill="url(#paint0_linear_2_119)" fill-rule="evenodd" d="M83 110C88.9991 86.0009 104.001 74 128 74C164 74 168.5 101 186.5 105.5C198.501 108.501 209 104.001 218 92C212.001 115.999 196.999 128 173 128C137 128 132.5 101 114.5 96.5C102.499 93.4991 92 97.9991 83 110ZM38 164C43.9991 140.001 59.0009 128 83 128C119 128 123.5 155 141.5 159.5C153.501 162.501 164 158.001 173 146C167.001 169.999 151.999 182 128 182C92 182 87.5 155 69.5 150.5C57.4991 147.499 47 151.999 38 164Z" clip-rule="evenodd"/><defs><linearGradient id="paint0_linear_2_119" x1="86.5" x2="163.5" y1="74" y2="185.5" gradientUnits="userSpaceOnUse"><stop stop-color="#32B1C1"/><stop offset="1" stop-color="#14C6B7"/></linearGradient></defs></svg>
        </g>
         
        <g transform="translate(1500, 0)">
          <svg width="256" height="256" viewBox="0 0 256 256" fill="none" xmlns="http://www.w3.org/2000/svg">
<rect width="256" height="256" rx="60" fill="#764ABC"/>
<path d="M166.579 165.599C173.96 164.835 179.559 158.472 179.304 150.837C179.05 143.202 172.687 137.094 165.052 137.094H164.543C156.653 137.348 150.545 143.965 150.799 151.855C151.054 155.673 152.581 158.981 154.871 161.272C146.218 178.324 132.984 190.795 113.132 201.23C99.6432 208.356 85.6452 210.901 71.6472 209.12C60.1944 207.593 51.2866 202.502 45.6874 194.104C37.5431 181.633 36.7796 168.144 43.6513 154.655C48.487 144.983 56.1222 137.857 60.9579 134.294C59.9399 130.986 58.4128 125.386 57.6493 121.314C20.7456 148.038 24.5632 184.178 35.7615 201.23C44.1603 213.955 61.2124 221.845 80.046 221.845C85.1362 221.845 90.2264 221.336 95.3165 220.063C127.894 213.701 152.581 194.358 166.579 165.599V165.599Z" fill="white"/>
<path d="M211.372 134.04C192.03 111.388 163.525 98.9175 130.948 98.9175H126.876C124.585 94.3363 119.749 91.2822 114.405 91.2822H113.896C106.006 91.5367 99.8977 98.154 100.152 106.044C100.407 113.679 106.769 119.787 114.405 119.787H114.914C120.513 119.533 125.349 115.97 127.385 111.134H131.966C151.308 111.134 169.633 116.733 186.176 127.677C198.901 136.076 208.064 147.02 213.154 160.254C217.481 170.943 217.226 181.378 212.645 190.286C205.519 203.775 193.557 211.156 177.777 211.156C167.597 211.156 157.926 208.102 152.835 205.811C150.036 208.356 144.946 212.428 141.383 214.973C152.326 220.063 163.525 222.863 174.214 222.863C198.647 222.863 216.717 209.374 223.589 195.885C230.97 181.124 230.461 155.673 211.372 134.04Z" fill="white"/>
<path d="M82.0822 169.926C82.3367 177.561 88.6994 183.669 96.3347 183.669H96.8437C104.733 183.414 110.842 176.797 110.587 168.907C110.333 161.272 103.97 155.164 96.3347 155.164H95.8256C95.3166 155.164 94.5531 155.164 94.0441 155.419C83.6092 138.112 79.2826 119.278 80.8096 98.9177C81.8277 83.6472 86.9178 70.4127 95.8256 59.4689C103.206 50.0521 117.459 45.4709 127.13 45.2164C154.108 44.7074 165.561 78.3025 166.324 91.7915C169.633 92.555 175.232 94.3365 179.05 95.6091C175.996 54.3787 150.545 33 126.112 33C103.206 33 82.0822 49.543 73.6834 73.9759C61.976 106.553 69.6113 137.857 83.8637 162.545C82.5912 164.326 81.8277 167.126 82.0822 169.926V169.926Z" fill="white"/>
</svg>

        </g>
        
  </svg>
  