
  <svg width="329.25" height="48" viewBox="0 0 1756 256" fill="none" xmlns="http://www.w3.org/2000/svg" xmlns:xlink="http://www.w3.org/1999/xlink" version="1.1">
    
        <g transform="translate(0, 0)">
          <svg xmlns="http://www.w3.org/2000/svg" width="256" height="256" fill="none" viewBox="0 0 256 256"><rect width="256" height="256" fill="#F03C2E" rx="60"/><g clip-path="url(#clip0_7_283)"><path fill="#fff" d="M224.225 119.094L136.906 31.775C135.711 30.5787 134.291 29.6298 132.729 28.9824C131.166 28.3349 129.491 28.0017 127.8 28.0017C126.109 28.0017 124.434 28.3349 122.871 28.9824C121.309 29.6298 119.889 30.5787 118.694 31.775L100.569 49.9L123.569 72.9C128.919 71.025 135.044 72.3062 139.306 76.5687C141.335 78.6014 142.752 81.1638 143.394 83.9632C144.036 86.7626 143.878 89.6862 142.937 92.4L165.106 114.569C170.469 112.719 176.656 113.912 180.937 118.206C182.361 119.63 183.49 121.32 184.26 123.18C185.03 125.04 185.426 127.033 185.426 129.046C185.425 131.059 185.029 133.052 184.258 134.912C183.487 136.771 182.358 138.461 180.934 139.884C179.511 141.308 177.821 142.436 175.961 143.206C174.101 143.977 172.108 144.373 170.095 144.372C168.082 144.372 166.088 143.975 164.229 143.205C162.369 142.434 160.679 141.305 159.256 139.881C154.756 135.381 153.644 128.756 155.919 123.212L135.244 102.537V156.944C136.745 157.686 138.116 158.666 139.306 159.844C140.729 161.267 141.858 162.956 142.629 164.816C143.399 166.675 143.795 168.668 143.795 170.681C143.795 172.694 143.399 174.687 142.629 176.546C141.858 178.406 140.729 180.096 139.306 181.519C137.883 182.942 136.193 184.071 134.334 184.841C132.474 185.611 130.481 186.008 128.469 186.008C126.456 186.008 124.463 185.611 122.604 184.841C120.744 184.071 119.054 182.942 117.631 181.519C116.206 180.096 115.076 178.407 114.305 176.548C113.533 174.688 113.136 172.694 113.136 170.681C113.136 168.668 113.533 166.675 114.305 164.815C115.076 162.955 116.206 161.266 117.631 159.844C119.112 158.369 120.756 157.25 122.65 156.5V101.587C120.825 100.837 119.112 99.7312 117.631 98.2437C115.479 96.0943 114.016 93.3526 113.428 90.3684C112.841 87.3841 113.155 84.2924 114.331 81.4875L91.6437 58.8125L31.7687 118.625C30.5716 119.821 29.6219 121.241 28.9739 122.804C28.3259 124.367 27.9924 126.042 27.9924 127.734C27.9924 129.426 28.3259 131.102 28.9739 132.665C29.6219 134.228 30.5716 135.648 31.7687 136.844L119.094 224.156C120.289 225.352 121.709 226.301 123.271 226.949C124.834 227.596 126.509 227.929 128.2 227.929C129.891 227.929 131.566 227.596 133.129 226.949C134.691 226.301 136.111 225.352 137.306 224.156L224.225 137.375C225.422 136.179 226.372 134.759 227.02 133.196C227.668 131.633 228.001 129.958 228.001 128.266C228.001 126.574 227.668 124.898 227.02 123.335C226.372 121.772 225.422 120.352 224.225 119.156"/></g><defs><clipPath id="clip0_7_283"><rect width="200" height="200" fill="#fff" transform="translate(28 28)"/></clipPath></defs></svg>
        </g>
         
        <g transform="translate(300, 0)">
          <svg width="256" height="256" viewBox="0 0 256 256" fill="none" xmlns="http://www.w3.org/2000/svg">
<rect width="256" height="256" rx="60" fill="#242938"/>
<path d="M128.001 30C72.7791 30 28 74.7708 28 130.001C28 174.184 56.6533 211.668 96.3867 224.891C101.384 225.817 103.219 222.722 103.219 220.081C103.219 217.696 103.126 209.819 103.083 201.463C75.2631 207.512 69.3927 189.664 69.3927 189.664C64.8437 178.105 58.2894 175.032 58.2894 175.032C49.2163 168.825 58.9733 168.953 58.9733 168.953C69.0151 169.658 74.3026 179.258 74.3026 179.258C83.2217 194.546 97.6965 190.126 103.403 187.571C104.301 181.107 106.892 176.696 109.752 174.199C87.5405 171.67 64.1913 163.095 64.1913 124.778C64.1913 113.86 68.0977 104.939 74.4947 97.9362C73.4564 95.4175 70.0335 85.2465 75.4635 71.4722C75.4635 71.4722 83.8609 68.7845 102.971 81.7226C110.948 79.5069 119.502 78.3958 128.001 78.3577C136.499 78.3958 145.061 79.5069 153.052 81.7226C172.139 68.7845 180.525 71.4722 180.525 71.4722C185.968 85.2465 182.544 95.4175 181.505 97.9362C187.917 104.939 191.797 113.86 191.797 124.778C191.797 163.187 168.403 171.644 146.135 174.119C149.722 177.223 152.918 183.308 152.918 192.638C152.918 206.018 152.802 216.787 152.802 220.081C152.802 222.742 154.602 225.86 159.671 224.878C199.383 211.64 228 174.169 228 130.001C228 74.7708 183.227 30 128.001 30ZM65.4536 172.453C65.2333 172.95 64.4517 173.099 63.7396 172.758C63.0143 172.432 62.6069 171.754 62.8421 171.256C63.0574 170.744 63.8406 170.602 64.5643 170.945C65.2913 171.271 65.7053 171.955 65.4536 172.453ZM70.3725 176.842C69.8956 177.285 68.9633 177.079 68.3307 176.38C67.6766 175.683 67.554 174.751 68.0376 174.302C68.5294 173.86 69.4336 174.067 70.0893 174.764C70.7434 175.47 70.8709 176.395 70.3725 176.842ZM73.7471 182.458C73.1344 182.884 72.1325 182.485 71.5132 181.595C70.9004 180.706 70.9004 179.64 71.5264 179.212C72.1474 178.785 73.1344 179.169 73.762 180.052C74.373 180.956 74.373 182.023 73.7471 182.458ZM79.4542 188.962C78.9061 189.566 77.7386 189.404 76.8841 188.579C76.0098 187.773 75.7663 186.629 76.3161 186.024C76.8709 185.418 78.045 185.589 78.9061 186.407C79.7738 187.211 80.0387 188.364 79.4542 188.962ZM86.8301 191.157C86.5883 191.941 85.4639 192.297 84.3312 191.964C83.2002 191.621 82.46 190.704 82.6885 189.912C82.9237 189.124 84.053 188.753 85.194 189.109C86.3234 189.45 87.0652 190.361 86.8301 191.157ZM95.2242 192.089C95.2523 192.913 94.2919 193.597 93.1029 193.612C91.9073 193.639 90.9402 192.971 90.9269 192.16C90.9269 191.327 91.8659 190.65 93.0615 190.63C94.2505 190.607 95.2242 191.269 95.2242 192.089ZM103.47 191.773C103.613 192.577 102.787 193.404 101.606 193.624C100.445 193.836 99.3702 193.339 99.2229 192.541C99.0788 191.716 99.92 190.89 101.079 190.676C102.262 190.471 103.32 190.955 103.47 191.773Z" fill="white"/>
</svg>

        </g>
         
        <g transform="translate(600, 0)">
          <svg width="256" height="256" viewBox="0 0 256 256" fill="none" xmlns="http://www.w3.org/2000/svg">
<rect width="256" height="256" rx="60" fill="#242938"/>
<path d="M172.787 97.4052L172.714 97.3739C172.673 97.3583 172.631 97.3426 172.594 97.3061C172.534 97.2418 172.49 97.1647 172.465 97.0806C172.44 96.9965 172.434 96.9077 172.448 96.821L176.48 72.1699L195.389 91.0834L175.724 99.4499C175.669 99.4719 175.611 99.4826 175.552 99.4812H175.474C175.448 99.4656 175.421 99.4447 175.369 99.3925C174.637 98.5777 173.762 97.9041 172.787 97.4052V97.4052ZM200.213 95.903L220.431 116.12C224.63 120.325 226.732 122.421 227.499 124.852C227.613 125.212 227.707 125.572 227.78 125.942L179.464 105.48C179.438 105.469 179.412 105.459 179.386 105.448C179.193 105.37 178.968 105.281 178.968 105.083C178.968 104.885 179.198 104.791 179.391 104.713L179.453 104.687L200.213 95.903V95.903ZM226.956 132.431C225.913 134.392 223.879 136.427 220.436 139.874L197.642 162.663L168.161 156.524L168.004 156.493C167.743 156.451 167.467 156.404 167.467 156.169C167.355 154.953 166.994 153.773 166.406 152.702C165.818 151.632 165.016 150.694 164.05 149.947C163.93 149.827 163.962 149.639 163.998 149.467C163.998 149.441 163.998 149.415 164.009 149.394L169.553 115.354L169.574 115.239C169.606 114.978 169.652 114.676 169.887 114.676C171.075 114.528 172.222 114.145 173.261 113.549C174.3 112.954 175.21 112.158 175.938 111.207C175.985 111.155 176.016 111.097 176.079 111.066C176.246 110.988 176.444 111.066 176.616 111.139L226.951 132.431H226.956ZM192.4 167.905L154.917 205.388L161.333 165.955L161.343 165.902C161.349 165.85 161.359 165.798 161.375 165.751C161.427 165.626 161.562 165.574 161.693 165.522L161.755 165.496C163.16 164.896 164.403 163.972 165.381 162.799C165.506 162.653 165.657 162.512 165.85 162.486C165.9 162.478 165.951 162.478 166.001 162.486L192.394 167.911L192.4 167.905ZM146.983 213.322L142.758 217.547L96.0487 150.04C96.0318 150.016 96.0144 149.991 95.9965 149.967C95.9235 149.868 95.8453 149.769 95.8609 149.654C95.8661 149.571 95.9183 149.498 95.9757 149.435L96.0278 149.368C96.1687 149.159 96.2886 148.95 96.419 148.726L96.5234 148.543L96.539 148.528C96.612 148.403 96.6798 148.283 96.805 148.215C96.9146 148.163 97.0658 148.184 97.1858 148.21L148.934 158.882C149.079 158.904 149.215 158.963 149.331 159.054C149.399 159.122 149.414 159.195 149.43 159.278C149.791 160.644 150.463 161.908 151.393 162.971C152.323 164.034 153.486 164.868 154.792 165.407C154.938 165.48 154.875 165.642 154.808 165.814C154.774 165.889 154.748 165.968 154.729 166.049C154.077 170.013 148.486 204.115 146.983 213.322ZM138.158 222.142C135.044 225.225 133.208 226.857 131.132 227.515C129.085 228.162 126.888 228.162 124.841 227.515C122.411 226.743 120.309 224.646 116.11 220.442L69.2016 173.534L81.4542 154.531C81.5115 154.438 81.5689 154.354 81.6628 154.286C81.7932 154.192 81.981 154.234 82.1375 154.286C84.9498 155.135 87.9692 154.982 90.6814 153.853C90.8222 153.801 90.963 153.765 91.0726 153.864C91.1273 153.914 91.1763 153.97 91.2186 154.031L138.158 222.147V222.142ZM64.6793 169.011L53.9186 158.251L75.1688 149.185C75.2231 149.161 75.2817 149.149 75.3409 149.149C75.5183 149.149 75.6226 149.326 75.7165 149.488C75.9301 149.816 76.1563 150.136 76.3946 150.447L76.4624 150.531C76.525 150.619 76.4833 150.708 76.4207 150.792L64.6845 169.011H64.6793ZM49.1563 153.488L35.5424 139.874C33.2265 137.558 31.5469 135.879 30.3785 134.434L71.7732 143.02C71.8252 143.029 71.8773 143.038 71.9296 143.046C72.1852 143.087 72.4669 143.134 72.4669 143.374C72.4669 143.635 72.1591 143.755 71.8983 143.854L71.7784 143.906L49.1563 153.488ZM28 127.434C28.0472 126.557 28.2049 125.69 28.4694 124.852C29.2414 122.421 31.3383 120.325 35.5424 116.12L52.9641 98.6988C60.9855 110.34 69.0287 121.967 77.0935 133.579C77.2344 133.766 77.3908 133.975 77.2292 134.131C76.4676 134.971 75.7061 135.889 75.1688 136.886C75.1105 137.014 75.0208 137.125 74.908 137.209C74.8402 137.251 74.7672 137.235 74.6889 137.219H74.6785L28 127.429V127.434ZM57.6272 94.0356L81.0525 70.6103C83.2537 71.5753 91.2656 74.9605 98.4324 77.9858C103.857 80.2809 108.802 82.3673 110.356 83.0454C110.513 83.108 110.654 83.1706 110.721 83.3271C110.763 83.421 110.742 83.5409 110.721 83.64C110.351 85.331 110.406 87.0875 110.882 88.7518C111.358 90.4162 112.24 91.9361 113.449 93.175C113.606 93.3315 113.449 93.5558 113.314 93.7488L113.241 93.8583L89.4556 130.699C89.393 130.804 89.3356 130.892 89.2313 130.96C89.1061 131.038 88.9288 131.002 88.7827 130.965C87.8576 130.723 86.9066 130.593 85.9504 130.579C85.095 130.579 84.1665 130.736 83.2276 130.908H83.2224C83.1181 130.924 83.0242 130.944 82.9407 130.882C82.8486 130.807 82.7693 130.717 82.706 130.616L57.6272 94.0356V94.0356ZM85.7835 65.8794L116.11 35.5532C120.309 31.3543 122.411 29.2522 124.841 28.4854C126.888 27.8382 129.085 27.8382 131.132 28.4854C133.563 29.2522 135.665 31.3543 139.864 35.5532L146.436 42.1254L124.867 75.5291C124.814 75.6263 124.741 75.7115 124.654 75.7794C124.523 75.8681 124.341 75.8316 124.184 75.7794C122.484 75.2634 120.683 75.1694 118.938 75.5057C117.193 75.842 115.556 76.5983 114.169 77.7094C114.028 77.8554 113.82 77.772 113.642 77.6937C110.826 76.468 88.9183 67.2095 85.7835 65.8794V65.8794ZM151.016 46.7051L170.93 66.62L166.132 96.3411V96.4194C166.127 96.4871 166.113 96.5539 166.09 96.6176C166.038 96.7219 165.933 96.7428 165.829 96.7741C164.803 97.0849 163.837 97.5662 162.971 98.1981C162.933 98.2246 162.899 98.2543 162.866 98.2867C162.809 98.3493 162.752 98.4067 162.658 98.4171C162.581 98.4195 162.505 98.4071 162.433 98.3806L132.086 85.4865L132.029 85.4604C131.836 85.3822 131.607 85.2883 131.607 85.0901C131.428 83.399 130.876 81.7687 129.99 80.3174C129.844 80.0775 129.682 79.8271 129.807 79.5819L151.016 46.7051V46.7051ZM130.506 91.5945L158.954 103.644C159.111 103.717 159.283 103.784 159.351 103.946C159.378 104.043 159.378 104.146 159.351 104.243C159.267 104.661 159.194 105.135 159.194 105.615V106.413C159.194 106.612 158.991 106.695 158.803 106.773L158.746 106.794C154.239 108.719 95.4749 133.777 95.3862 133.777C95.2976 133.777 95.2037 133.777 95.115 133.688C94.9585 133.532 95.115 133.313 95.2558 133.114C95.2807 133.08 95.3051 133.045 95.3289 133.01L118.707 96.8106L118.749 96.748C118.885 96.5289 119.041 96.2838 119.291 96.2838L119.526 96.3203C120.058 96.3933 120.528 96.4611 121.002 96.4611C124.549 96.4611 127.835 94.7346 129.817 91.7823C129.865 91.7035 129.925 91.633 129.995 91.5737C130.136 91.4693 130.344 91.5215 130.506 91.5945V91.5945ZM97.9265 139.504L161.98 112.188C161.98 112.188 162.074 112.188 162.162 112.276C162.512 112.626 162.809 112.86 163.096 113.079L163.237 113.168C163.367 113.241 163.498 113.325 163.508 113.46C163.508 113.512 163.508 113.544 163.498 113.591L158.01 147.297L157.989 147.432C157.953 147.693 157.916 147.991 157.671 147.991C156.208 148.089 154.791 148.543 153.544 149.313C152.296 150.083 151.254 151.145 150.51 152.409L150.483 152.45C150.41 152.57 150.343 152.685 150.223 152.748C150.113 152.8 149.972 152.779 149.858 152.753L98.7767 142.216C98.7245 142.206 97.9838 139.509 97.9265 139.504V139.504Z" fill="url(#paint0_radial_267_110)"/>
<defs>
<radialGradient id="paint0_radial_267_110" cx="0" cy="0" r="1" gradientUnits="userSpaceOnUse" gradientTransform="translate(21.2925 125.178) rotate(90) scale(199.78 230.653)">
<stop stop-color="#20C6B7"/>
<stop offset="1" stop-color="#4D9ABF"/>
</radialGradient>
</defs>
</svg>

        </g>
         
        <g transform="translate(900, 0)">
          <svg width="256" height="256" viewBox="0 0 256 256" fill="none" xmlns="http://www.w3.org/2000/svg">
<rect width="256" height="256" rx="60" fill="#242938"/>
<path d="M128 34L223 198.853H33L128 34Z" fill="white"/>
</svg>

        </g>
         
        <g transform="translate(1200, 0)">
          <svg width="256" height="256" viewBox="0 0 256 256" fill="none" xmlns="http://www.w3.org/2000/svg">
<rect width="256" height="256" rx="60" fill="#242938"/>
<path d="M227.088 57.6016L133.256 225.389C131.318 228.854 126.341 228.874 124.375 225.427L28.6823 57.6177C26.54 53.861 29.7524 49.3105 34.0096 50.0715L127.942 66.8613C128.541 66.9684 129.155 66.9674 129.754 66.8582L221.722 50.0955C225.965 49.3222 229.192 53.8374 227.088 57.6016Z" fill="url(#paint0_linear_307_179)"/>
<path d="M172.687 28.0492L103.249 41.6554C102.107 41.879 101.262 42.8462 101.194 44.007L96.9221 116.148C96.8216 117.847 98.3821 119.166 100.04 118.783L119.373 114.322C121.182 113.905 122.816 115.498 122.445 117.317L116.701 145.443C116.314 147.336 118.092 148.954 119.94 148.393L131.881 144.765C133.732 144.203 135.511 145.826 135.119 147.721L125.991 191.9C125.42 194.664 129.096 196.171 130.629 193.801L131.653 192.219L188.235 79.2992C189.183 77.4085 187.549 75.2526 185.472 75.6534L165.573 79.494C163.703 79.8545 162.112 78.113 162.639 76.2834L175.628 31.2582C176.156 29.4255 174.559 27.6825 172.687 28.0492Z" fill="url(#paint1_linear_307_179)"/>
<defs>
<linearGradient id="paint0_linear_307_179" x1="26.3459" y1="44.075" x2="143.127" y2="202.673" gradientUnits="userSpaceOnUse">
<stop stop-color="#41D1FF"/>
<stop offset="1" stop-color="#BD34FE"/>
</linearGradient>
<linearGradient id="paint1_linear_307_179" x1="122.551" y1="31.7433" x2="143.676" y2="176.66" gradientUnits="userSpaceOnUse">
<stop stop-color="#FFEA83"/>
<stop offset="0.0833333" stop-color="#FFDD35"/>
<stop offset="1" stop-color="#FFA800"/>
</linearGradient>
</defs>
</svg>

        </g>
         
        <g transform="translate(1500, 0)">
          <svg width="256" height="256" viewBox="0 0 256 256" fill="none" xmlns="http://www.w3.org/2000/svg">
<rect width="256" height="256" rx="60" fill="#FF6C37"/>
<path d="M169.061 88.6123L118.521 139.153L104.268 124.901C153.971 75.1986 158.882 79.5101 169.061 88.6123Z" fill="#EEEEEE"/>
<path d="M118.521 140.35C118.161 140.35 117.922 140.231 117.682 139.991L103.31 125.739C102.831 125.26 102.831 124.542 103.31 124.063C153.851 73.5211 159.12 78.3118 169.78 87.8932C170.02 88.1328 170.139 88.3724 170.139 88.7317C170.139 89.0911 170.02 89.3306 169.78 89.5694L119.239 139.991C119.12 140.231 118.76 140.35 118.521 140.35ZM105.945 124.901L118.521 137.476L167.265 88.7317C158.403 80.8266 152.414 78.4316 105.945 124.901Z" fill="#FF6C37"/>
<path d="M133.012 153.645L119.239 139.872L169.78 89.3315C183.314 102.984 163.073 125.141 133.012 153.645Z" fill="#EEEEEE"/>
<path d="M133.012 154.843C132.652 154.843 132.414 154.723 132.174 154.483L118.401 140.71C118.161 140.471 118.161 140.231 118.161 139.872C118.161 139.512 118.281 139.273 118.521 139.033L169.061 88.4927C169.54 88.0135 170.259 88.0135 170.738 88.4927C173.852 91.3668 175.529 95.4387 175.409 99.6305C175.17 112.924 160.079 129.811 133.97 154.483C133.611 154.723 133.251 154.843 133.012 154.843ZM120.916 139.872C128.58 147.656 131.815 150.771 133.012 151.968C153.133 132.806 172.654 113.164 172.774 99.6305C172.894 96.5168 171.697 93.4031 169.66 91.0074L120.916 139.872Z" fill="#FF6C37"/>
<path d="M104.508 125.26L114.688 135.44C114.927 135.68 114.927 135.919 114.688 136.159C114.568 136.279 114.568 136.279 114.449 136.279L93.3693 140.83C92.292 140.95 91.3337 140.231 91.0942 139.153C90.9744 138.554 91.214 137.956 91.5733 137.596L103.789 125.38C104.029 125.14 104.388 125.02 104.508 125.26Z" fill="#EEEEEE"/>
<path d="M93.01 142.028C91.214 142.028 89.8963 140.59 89.8963 138.793C89.8963 137.956 90.2557 137.117 90.8546 136.518L103.07 124.302C103.789 123.703 104.748 123.703 105.466 124.302L115.646 134.482C116.364 135.081 116.364 136.159 115.646 136.877C115.406 137.117 115.167 137.237 114.807 137.357L93.7287 141.908C93.4891 141.908 93.2495 142.028 93.01 142.028ZM104.149 126.577L92.4118 138.314C92.1723 138.554 92.0525 138.913 92.292 139.272C92.4118 139.632 92.7704 139.752 93.1298 139.632L112.891 135.32L104.149 126.577Z" fill="#FF6C37"/>
<path d="M195.769 60.5877C188.104 53.1625 175.768 53.4021 168.342 61.1867C160.917 68.9712 161.157 81.1871 168.941 88.6131C175.289 94.7207 184.871 95.7988 192.416 91.2476L178.762 77.5943L195.769 60.5877Z" fill="#EEEEEE"/>
<path d="M182.355 95.1996C170.978 95.1996 161.756 85.9776 161.756 74.6002C161.756 63.222 170.978 54 182.355 54C187.625 54 192.775 56.0364 196.607 59.749C196.847 59.9886 196.967 60.2281 196.967 60.5875C196.967 60.9469 196.847 61.1864 196.607 61.426L180.439 77.5941L193.134 90.2891C193.614 90.7683 193.614 91.487 193.134 91.9661C193.015 92.0859 193.015 92.0859 192.895 92.2057C189.781 94.1215 186.068 95.1996 182.355 95.1996ZM182.355 56.5155C172.295 56.5155 164.151 64.6595 164.271 74.72C164.271 84.7805 172.414 92.9244 182.475 92.8047C185.23 92.8047 187.984 92.2057 190.499 90.888L177.924 78.4326C177.684 78.193 177.565 77.9534 177.565 77.5941C177.565 77.2347 177.684 76.9951 177.924 76.7556L193.973 60.7073C190.739 57.953 186.667 56.5155 182.355 56.5155Z" fill="#FF6C37"/>
<path d="M196.128 60.9471L195.889 60.7075L178.762 77.5943L192.296 91.1279C193.614 90.2894 194.93 89.3319 196.009 88.2538C203.673 80.708 203.673 68.4921 196.128 60.9471Z" fill="#EEEEEE"/>
<path d="M192.416 92.4448C192.056 92.4448 191.817 92.325 191.577 92.0855L177.924 78.4321C177.684 78.1925 177.565 77.953 177.565 77.5936C177.565 77.2342 177.684 76.9947 177.924 76.7551L194.93 59.7485C195.41 59.2694 196.128 59.2694 196.607 59.7485L196.967 59.9881C204.991 68.0122 204.991 80.9469 197.087 89.0916C195.889 90.2887 194.571 91.3667 193.134 92.2053C192.775 92.325 192.536 92.4448 192.416 92.4448ZM180.439 77.5936L192.536 89.6897C193.494 89.0916 194.452 88.2531 195.17 87.5344C201.997 80.7073 202.356 69.5695 195.769 62.3838L180.439 77.5936Z" fill="#FF6C37"/>
<path d="M171.098 90.7674C168.223 87.8933 163.552 87.8933 160.678 90.7674L115.526 135.919L123.072 143.464L170.858 101.547C173.972 98.9113 174.211 94.2404 171.577 91.1267C171.337 91.007 171.217 90.8872 171.098 90.7674Z" fill="#EEEEEE"/>
<path d="M122.952 144.662C122.593 144.662 122.353 144.542 122.113 144.303L114.568 136.758C114.089 136.279 114.089 135.56 114.568 135.081L159.719 89.929C163.073 86.5758 168.462 86.5758 171.816 89.929C175.17 93.283 175.17 98.6719 171.816 102.026C171.697 102.146 171.577 102.265 171.457 102.385L123.67 144.303C123.551 144.542 123.311 144.662 122.952 144.662ZM117.203 135.919L123.072 141.788L170.02 100.588C172.654 98.4323 172.894 94.4801 170.738 91.8456C168.582 89.2111 164.63 88.9715 161.995 91.1269C161.876 91.2467 161.756 91.3664 161.516 91.4862L117.203 135.919Z" fill="#FF6C37"/>
<path d="M80.9139 187.3C80.4347 187.539 80.1951 188.018 80.3149 188.497L82.3513 197.121C82.8305 198.318 82.1117 199.756 80.7941 200.115C79.8358 200.474 78.7585 200.115 78.1596 199.397L64.9854 186.342L107.981 143.346L122.832 143.585L132.892 153.646C130.497 155.682 116.005 169.694 80.9139 187.3Z" fill="#EEEEEE"/>
<path d="M79.9556 201.311C78.9981 201.311 78.0398 200.952 77.4408 200.234L64.3864 187.179C64.1469 186.94 64.0271 186.7 64.0271 186.341C64.0271 185.982 64.1469 185.742 64.3864 185.502L107.382 142.507C107.622 142.267 107.981 142.147 108.221 142.147L123.072 142.387C123.431 142.387 123.67 142.507 123.909 142.746L133.97 152.806C134.21 153.046 134.329 153.405 134.329 153.764C134.329 154.124 134.21 154.363 133.85 154.603L133.012 155.322C120.317 166.459 103.07 177.598 81.6326 188.257L83.669 196.76C84.0275 198.317 83.3096 199.994 81.8722 200.832C81.1534 201.191 80.5545 201.311 79.9556 201.311ZM66.7814 186.341L79.1178 198.557C79.4764 199.156 80.1951 199.395 80.7941 199.036C81.393 198.677 81.6326 197.958 81.2732 197.359L79.2376 188.736C78.9981 187.658 79.4764 186.7 80.4347 186.221C101.633 175.562 118.76 164.544 131.335 153.645L122.473 144.782L108.7 144.542L66.7814 186.341Z" fill="#FF6C37"/>
<path d="M54.8051 196.641L65.1052 186.341L80.4347 201.671L56.0029 199.995C54.9249 199.875 54.2061 198.917 54.3259 197.838C54.3259 197.359 54.4457 196.88 54.8051 196.641Z" fill="#EEEEEE"/>
<path d="M80.4347 202.749L55.8831 201.072C54.0863 200.952 52.8884 199.396 53.0082 197.599C53.128 196.88 53.3676 196.162 53.9665 195.683L64.2666 185.383C64.7458 184.904 65.4645 184.904 65.9429 185.383L81.2732 200.713C81.6326 201.072 81.7524 201.551 81.5128 202.031C81.2732 202.51 80.9139 202.749 80.4347 202.749ZM65.1051 188.018L55.6435 197.479C55.2842 197.719 55.2842 198.318 55.6435 198.557C55.7633 198.677 55.8831 198.797 56.1227 198.797L77.321 200.234L65.1051 188.018Z" fill="#FF6C37"/>
<path d="M103.789 148.855C103.07 148.855 102.591 148.256 102.591 147.657C102.591 147.298 102.711 147.059 102.951 146.819L114.568 135.202C115.047 134.722 115.766 134.722 116.245 135.202L123.79 142.747C124.149 143.106 124.269 143.465 124.149 143.945C124.029 144.304 123.67 144.663 123.192 144.783L104.029 148.855C103.909 148.855 103.789 148.855 103.789 148.855ZM115.406 137.717L107.502 145.622L120.436 142.866L115.406 137.717Z" fill="#FF6C37"/>
<path d="M122.832 143.584L109.658 146.459C108.7 146.699 107.741 146.1 107.502 145.142C107.382 144.543 107.502 143.944 107.981 143.465L115.286 136.159L122.832 143.584Z" fill="#EEEEEE"/>
<path d="M109.418 147.657C107.741 147.657 106.424 146.34 106.424 144.663C106.424 143.825 106.783 143.106 107.262 142.508L114.568 135.202C115.047 134.722 115.766 134.722 116.245 135.202L123.79 142.747C124.149 143.106 124.269 143.465 124.149 143.945C124.029 144.304 123.67 144.663 123.192 144.783L110.017 147.657C109.778 147.657 109.538 147.657 109.418 147.657ZM115.406 137.717L108.939 144.184C108.7 144.424 108.7 144.663 108.819 144.903C108.939 145.142 109.179 145.262 109.538 145.262L120.556 142.866L115.406 137.717Z" fill="#FF6C37"/>
<path d="M196.248 72.4434C196.009 71.7254 195.17 71.3661 194.451 71.6057C193.733 71.8444 193.374 72.6829 193.614 73.4017C193.614 73.5215 193.733 73.6412 193.733 73.761C194.451 75.1985 194.213 76.9945 193.254 78.3121C192.775 78.9111 192.895 79.7496 193.374 80.2287C193.973 80.7071 194.811 80.5881 195.29 79.9892C197.087 77.7132 197.446 74.8391 196.248 72.4434Z" fill="#FF6C37"/>
</svg>

        </g>
        
  </svg>
  